<?xml version="1.0" encoding="UTF-8"?>
<!-- Generator: Adobe Illustrator 22.1.0, SVG Export Plug-In . SVG Version: 6.00 Build 0)  -->
<svg version="1.1" id="Layer_1" xmlns="http://www.w3.org/2000/svg" xmlns:xlink="http://www.w3.org/1999/xlink" x="0px" y="0px" viewBox="0 0 550 131" style="enable-background:new 0 0 550 131;" xml:space="preserve">
<style type="text/css">
	.st0{display:none;}
	.st1{display:inline;fill:#FF00DB;}
	.st2{fill:#FFFFFF;}
	.st3{fill:none;stroke:#333333;stroke-width:2;stroke-linecap:square;}
	.st4{display:inline;}
	.st5{fill:#7CC242;}
	.st6{display:inline;fill:#FFFFFF;}
</style>
<g id="Layer_3" class="st0">
	<rect x="-30" y="-20" class="st1" width="620" height="196"/>
</g>
<g id="Layer_2_1_">
	<g id="logo">
		<g id="IBT-Logo" transform="translate(433 24)">
			<path id="IBT" class="st2" d="M-432.2,3.2h13.3v-4.6h-1.3c-0.4,0-1-0.7-1-1.1V-17c0-0.4,0.6-1.1,1-1.1h1.3v-4.8h-13.3v4.8h1.2     c0.5,0,1.1,0.7,1.1,1.1v14.5c0,0.4-0.6,1.1-1.1,1.1h-1.2V3.2L-432.2,3.2z M-418,3.2h12.1v-4.6h-2.2v-9.2c0.6-0.1,1.1-0.1,1.5-0.1     c1.6,0,2.4,0.3,2.4,1.7V3.1h9.6v-4.6h-0.6c-0.4,0-1-0.6-1-1v-9.7c0-3.6-2.5-4.7-5.1-4.7c-3.1,0-5.3,1.3-7.1,3.1     c-0.2-2.1-0.7-2.7-1.4-2.7h-8.5v4.9h1.1c0.4,0,1,0.6,1,1v8.3c0,0.3-0.6,1-1,1h-1C-418-1.3-418,3.2-418,3.2z M-394.4-11.4h1.9V-2     c0,4.6,2.9,5.7,7.2,5.7c1.8,0,3.3-0.3,4.3-0.6v-4.4h-1c-1.8,0-2.3-0.5-2.3-2.2v-7.9h3.2v-4.9h-3.2v-5.1h-8.1v5.1h-1.9     L-394.4-11.4L-394.4-11.4z M-360.1-4.8c0-0.3,0.1-1,0.1-1.9c0-6.9-3.2-9.9-9.7-9.9c-6.6,0-10.6,4-10.6,10.2s3.1,10,10.7,10     c4.5,0,7.1-0.8,8.9-1.8v-4.7h-4.3c-0.8,1-1.7,1.6-3.7,1.6c-2.2,0-3.2-1.1-3.4-3.5C-372.2-4.8-360.1-4.8-360.1-4.8z M-369.7-12.1     c1.4,0,2,1,2.2,3.4h-4.7C-371.8-11.1-371.2-12.1-369.7-12.1z M-358.9,3.2h11.9v-4.6h-2v-8.3c1.1-0.3,2.8-0.6,5.3-0.6h0.9v-6     c-0.6-0.2-0.9-0.2-1.1-0.2c-2.5,0-3.8,1.2-5.1,2.9c-0.2-2.1-0.7-2.7-1.4-2.7h-8.5v4.9h1.1c0.4,0,1,0.6,1,1v8.3c0,0.4-0.6,1-1,1     h-1v4.3H-358.9z M-341.7,3.2h12.1v-4.6h-2.2v-9.2c0.6-0.1,1.1-0.1,1.5-0.1c1.6,0,2.4,0.3,2.4,1.7V3.1h9.6v-4.6h-0.6     c-0.4,0-1-0.6-1-1v-9.7c0-3.6-2.5-4.7-5.1-4.7c-3.1,0-5.3,1.3-7,3.1c-0.2-2.1-0.7-2.7-1.4-2.7h-8.5v4.9h1.1c0.4,0,1,0.6,1,1v8.3     c0,0.3-0.6,1-1,1h-1C-341.7-1.3-341.7,3.2-341.7,3.2z M-311.3,3.5c2.4,0,4.2-0.7,5.6-2.3c0.7,1.4,1.9,2.3,4.4,2.3     c1.9,0,3.4-0.4,4.6-1.1v-3.8h-0.7c-0.4,0-0.9-0.6-0.9-1v-7.8c0-4.6-2.7-6.6-8.8-6.6c-4,0-7.1,0.7-9.2,1.3v5.5h3.3     c0.8-0.7,1.8-1.3,3.8-1.3c1.9,0,2.7,0.7,2.7,2v1.1c-1.1-0.2-2.1-0.3-3.5-0.3c-4.6,0-7.5,1.8-7.5,6.1     C-317.4,1.7-314.6,3.5-311.3,3.5L-311.3,3.5z M-308-1.1c-1,0-1.8-0.4-1.8-1.8c0-1.4,0.7-1.9,2-1.9c0.5,0,1.1,0.1,1.5,0.2v3     C-306.8-1.3-307.3-1.1-308-1.1L-308-1.1z M-296.4-11.4h1.9V-2c0,4.6,2.9,5.7,7.2,5.7c1.8,0,3.3-0.3,4.3-0.6v-4.4h-1.1     c-1.8,0-2.3-0.5-2.3-2.2v-7.9h3.2v-4.9h-3.2v-5.1h-8.1v5.1h-1.9C-296.4-16.3-296.4-11.4-296.4-11.4z M-282.1,3.2h11.8v-4.6h-1     c-0.4,0-1-0.6-1-1v-12.1c0-1.2-0.4-1.9-1.1-1.9h-8.9v4.9h1.1c0.4,0,0.9,0.6,0.9,1v8.3c0,0.4-0.5,1-0.9,1h-1v4.4H-282.1z      M-276.3-17c2.2,0,3.7-1.3,3.7-3.4s-1.5-3.5-3.7-3.5s-3.7,1.4-3.7,3.5C-280-18.5-278.4-17-276.3-17z M-258.7,3.6     c6.4,0,11-3.7,11-10c0-6.2-4.6-10.2-11-10.2s-11,4-11,10.2C-269.6-0.2-265,3.6-258.7,3.6z M-258.7-1.3c-1.7,0-2.8-1.6-2.8-5.2     s1.1-5.1,2.8-5.1s2.8,1.5,2.8,5.1C-255.8-2.8-257-1.3-258.7-1.3z M-246.9,3.2h12.1v-4.6h-2.2v-9.2c0.6-0.1,1.1-0.1,1.5-0.1     c1.6,0,2.4,0.3,2.4,1.7V3.1h9.6v-4.6h-0.6c-0.4,0-1-0.6-1-1v-9.7c0-3.6-2.5-4.7-5.1-4.7c-3.1,0-5.3,1.3-7.1,3.1     c-0.2-2.1-0.7-2.7-1.4-2.7h-8.5v4.9h1.1c0.4,0,1,0.6,1,1v8.3c0,0.3-0.6,1-1,1h-1C-246.9-1.3-246.9,3.2-246.9,3.2z M-216.5,3.5     c2.4,0,4.2-0.7,5.6-2.3c0.7,1.4,1.9,2.3,4.4,2.3c1.9,0,3.4-0.4,4.6-1.1v-3.8h-0.7c-0.4,0-0.9-0.6-0.9-1v-7.8     c0-4.6-2.7-6.6-8.8-6.6c-4,0-7.1,0.7-9.2,1.3v5.5h3.3c0.8-0.7,1.8-1.3,3.8-1.3c1.9,0,2.7,0.7,2.7,2v1.1c-1.1-0.2-2.1-0.3-3.5-0.3     c-4.6,0-7.5,1.8-7.5,6.1C-222.5,1.7-219.7,3.5-216.5,3.5z M-213.1-1.1c-1.1,0-1.8-0.4-1.8-1.8c0-1.4,0.7-1.9,2-1.9     c0.5,0,1.1,0.1,1.5,0.2v3C-212-1.3-212.5-1.1-213.1-1.1L-213.1-1.1z M-200.9,3.2h12v-4.6h-1.1c-0.4,0-0.9-0.6-0.9-1v-18.8     c0-1-0.5-1.6-1.1-1.6h-9v4.8h1.1c0.4,0,0.9,0.6,0.9,1v14.7c0,0.4-0.5,1-0.9,1h-1.1v4.5H-200.9z M-182.2,3.2h12.6     c7,0,11.3-2.5,11.3-7.5c0-3.5-2.1-5.4-5.9-6v-0.2c3.2-0.8,5.2-2.3,5.2-5.5c0-4.5-3.7-6.7-10.6-6.7h-12.5v4.7h1.1     c0.5,0,1.1,0.7,1.1,1.1v14.5c0,0.4-0.6,1.1-1.1,1.1h-1.1v4.5H-182.2z M-171.6-1.5v-6.2h1.4c2.3,0,3.2,1,3.2,3.1s-0.9,3.2-3.2,3.2     h-1.4V-1.5z M-171.6-17.8h1.3c2.1,0,2.9,1,2.9,2.8s-0.9,2.8-2.9,2.8h-1.3V-17.8L-171.6-17.8z M-150.9,3.6c3.2,0,5.2-1.2,6.9-3     c0.2,2.1,0.8,2.7,1.4,2.7h8.3v-4.6h-0.9c-0.4,0-0.9-0.6-0.9-1v-14h-10v4.9h1.9v9c-0.6,0.1-1.1,0.2-1.4,0.2     c-1.6,0-2.4-0.3-2.4-1.8v-12.1h-9.7v4.9h0.8c0.3,0,0.9,0.6,0.9,1v9.3C-156.1,2.6-153.5,3.6-150.9,3.6L-150.9,3.6z M-125.2,3.6     c6.5,0,9.3-2.5,9.3-7c0-4.6-2.5-5.7-7.4-6.3c-2.3-0.3-3-0.5-3-1.1c0-0.7,0.6-1.1,2.2-1.1c1.5,0,2.5,0.5,3.2,1.3h4.2v-5.1     c-1.9-0.6-4.1-1-7.6-1c-5.4,0-9,2.1-9,6.6c0,4.4,2.5,5.9,6.7,6.4c2.5,0.3,3.2,0.5,3.2,1.3c0,0.9-0.9,1.1-2.2,1.1     c-1.4,0-2.8-0.7-3.4-1.7h-4.3v5.4C-131.6,3-129.2,3.6-125.2,3.6L-125.2,3.6z M-114.8,3.2h11.8v-4.6h-1c-0.4,0-1-0.6-1-1v-12.1     c0-1.2-0.4-1.9-1.1-1.9h-8.9v4.9h1.1c0.4,0,0.9,0.6,0.9,1v8.3c0,0.4-0.5,1-0.9,1h-1v4.4H-114.8z M-109-17c2.2,0,3.8-1.3,3.8-3.4     s-1.5-3.5-3.8-3.5c-2.2,0-3.7,1.4-3.7,3.5C-112.7-18.5-111.1-17-109-17z M-102,3.2h12v-4.6h-2.2v-9.2c0.6-0.1,1.1-0.1,1.5-0.1     c1.6,0,2.4,0.3,2.4,1.7V3.1h9.6v-4.6h-0.6c-0.4,0-1-0.6-1-1v-9.7c0-3.6-2.5-4.7-5.1-4.7c-3.1,0-5.3,1.3-7.1,3.1     c-0.2-2.1-0.7-2.7-1.4-2.7h-8.5v4.9h1.1c0.4,0,1,0.6,1,1v8.3c0,0.3-0.6,1-1,1h-1C-102-1.3-102,3.2-102,3.2z M-57.8-4.8     c0-0.3,0.1-1,0.1-1.9c0-6.9-3.1-9.9-9.7-9.9c-6.6,0-10.6,4-10.6,10.2s3.1,10,10.7,10c4.5,0,7.1-0.8,8.8-1.8v-4.7h-4.3     c-0.8,1-1.7,1.6-3.7,1.6c-2.2,0-3.2-1.1-3.4-3.5L-57.8-4.8L-57.8-4.8z M-67.4-12.1c1.4,0,2,1,2.2,3.4h-4.7     C-69.6-11.1-68.9-12.1-67.4-12.1z M-48.5,3.6c6.5,0,9.3-2.5,9.3-7c0-4.6-2.5-5.7-7.4-6.3c-2.3-0.3-2.9-0.5-2.9-1.1     c0-0.7,0.6-1.1,2.2-1.1c1.5,0,2.5,0.5,3.1,1.3h4.2v-5.1c-1.9-0.6-4.1-1-7.6-1c-5.4,0-9,2.1-9,6.6c0,4.4,2.5,5.9,6.7,6.4     c2.5,0.3,3.2,0.5,3.2,1.3c0,0.9-0.9,1.1-2.2,1.1c-1.4,0-2.9-0.7-3.4-1.7h-4.3v5.4C-54.9,3-52.5,3.6-48.5,3.6L-48.5,3.6z      M-30.2,3.6c6.5,0,9.3-2.5,9.3-7c0-4.6-2.5-5.7-7.4-6.3c-2.3-0.3-3-0.5-3-1.1c0-0.7,0.6-1.1,2.2-1.1c1.5,0,2.5,0.5,3.2,1.3h4.2     v-5.1c-1.9-0.6-4.1-1-7.6-1c-5.4,0-9,2.1-9,6.6c0,4.4,2.5,5.9,6.7,6.4c2.5,0.3,3.2,0.5,3.2,1.3c0,0.9-0.9,1.1-2.2,1.1     C-32-1.3-33.4-2-34-3h-4.3v5.4C-36.5,3-34.1,3.6-30.2,3.6z M-8.6,3.2H4.6v-4.6H3.4c-0.5,0-1.1-0.7-1.1-1.1v-15.3h2.1L5-13h5.2     v-9.7H-14v9.7h5.2l0.6-4.8h2.1v15.3c0,0.4-0.6,1.1-1.1,1.1h-1.2L-8.6,3.2L-8.6,3.2z M11.2,3.2H23v-4.6h-1c-0.4,0-1-0.6-1-1v-12.1     c0-1.2-0.4-1.9-1.1-1.9H11v4.9h1.1c0.4,0,0.9,0.6,0.9,1v8.3c0,0.4-0.5,1-0.9,1h-1C11.2-1.3,11.2,3.2,11.2,3.2z M17.1-17     c2.2,0,3.8-1.3,3.8-3.4s-1.5-3.5-3.8-3.5c-2.2,0-3.7,1.4-3.7,3.5C13.4-18.5,14.9-17,17.1-17z M24,3.2h11.7v-4.6H34v-9.2     c0.6-0.1,1.1-0.1,1.4-0.1c1.7,0,2,0.3,2,1.7V3.1h9.7v-4.6h-1.7v-9.2c0.6-0.1,1.1-0.1,1.4-0.1c1.7,0,1.9,0.3,1.9,1.7V3h9.6v-4.6     h-0.6c-0.4,0-1-0.6-1-1v-9.7c0-3.6-2.4-4.7-5-4.7c-3.2,0-5.1,1.5-6.6,3.2c-0.6-2.5-2.7-3.2-4.9-3.2c-3.1,0-5.1,1.5-6.6,3.2     c-0.2-2.3-0.7-2.9-1.4-2.9h-8.5v4.9h1.1c0.4,0,1,0.6,1,1v8.3c0,0.3-0.6,1-1,1h-1v4.7H24z M79.2-4.8c0-0.3,0.1-1,0.1-1.9     c0-6.9-3.1-9.9-9.7-9.9c-6.5,0-10.6,4-10.6,10.2s3.1,10,10.7,10c4.5,0,7.1-0.8,8.8-1.8v-4.7h-4.3c-0.8,1-1.7,1.6-3.7,1.6     c-2.2,0-3.2-1.1-3.4-3.5L79.2-4.8L79.2-4.8z M69.5-12.1c1.4,0,2,1,2.2,3.4H67C67.3-11.1,68.1-12.1,69.5-12.1z M88.5,3.6     c6.5,0,9.3-2.5,9.3-7c0-4.6-2.5-5.7-7.4-6.3c-2.3-0.3-2.9-0.5-2.9-1.1c0-0.7,0.6-1.1,2.2-1.1c1.5,0,2.5,0.5,3.1,1.3H97v-5.1     c-1.9-0.6-4.1-1-7.6-1c-5.4,0-9,2.1-9,6.6c0,4.4,2.5,5.9,6.7,6.4c2.5,0.3,3.2,0.5,3.2,1.3c0,0.9-0.9,1.1-2.2,1.1     c-1.4,0-2.9-0.7-3.4-1.7h-4.3v5.4C82.1,3,84.5,3.6,88.5,3.6L88.5,3.6z"/>
		</g>
	</g>
	<g id="stacked">
		<g id="IBT-Logo-_x5B_stacked_x5D_" transform="translate(399 96)">
			<path id="International-Busine" class="st2" d="M-399-31.4h12.5v-4.3h-1.2c-0.4,0-0.9-0.6-0.9-1v-13.7c0-0.4,0.6-1,0.9-1h1.2     v-4.5H-399v4.5h1.2c0.4,0,1,0.6,1,1v13.7c0,0.4-0.6,1-1,1h-1.2V-31.4z M-385.5-31.4h11.4v-4.3h-2.1v-8.7c0.6-0.1,1.1-0.1,1.4-0.1     c1.6,0,2.2,0.3,2.2,1.6v11.5h9.1v-4.3h-0.6c-0.4,0-0.9-0.5-0.9-0.9v-9.2c0-3.4-2.3-4.4-4.8-4.4c-2.9,0-5,1.2-6.6,2.9     c-0.2-2-0.7-2.6-1.4-2.6h-8v4.6h1c0.4,0,0.9,0.5,0.9,0.9v7.8c0,0.3-0.5,0.9-0.9,0.9h-0.9C-385.5-35.7-385.5-31.4-385.5-31.4z      M-363.2-45.2h1.8v8.8c0,4.3,2.7,5.5,6.8,5.5c1.8,0,3.1-0.3,4.1-0.5v-4.2h-0.9c-1.7,0-2.2-0.5-2.2-2.1v-7.5h3.1v-4.6h-3.1v-4.8     h-7.7v4.8h-1.8C-363.2-49.8-363.2-45.2-363.2-45.2z M-330.7-39c0-0.2,0.1-0.9,0.1-1.8c0-6.5-2.9-9.4-9.2-9.4     c-6.2,0-10,3.8-10,9.7c0,5.8,2.9,9.4,10.1,9.4c4.2,0,6.7-0.7,8.4-1.7v-4.4h-4c-0.7,0.9-1.6,1.6-3.5,1.6c-2.1,0-3-1-3.3-3.4     L-330.7-39L-330.7-39z M-339.8-45.8c1.3,0,1.9,0.9,2.1,3.3h-4.4C-341.9-44.9-341.2-45.8-339.8-45.8z M-329.6-31.4h11.3v-4.3h-1.9     v-7.9c1-0.3,2.6-0.6,5-0.6h0.8v-5.7c-0.5-0.2-0.8-0.2-1.1-0.2c-2.3,0-3.6,1.2-4.8,2.7c-0.2-2-0.7-2.5-1.4-2.5h-8v4.6h1     c0.4,0,0.9,0.6,0.9,0.9v7.8c0,0.4-0.5,0.9-0.9,0.9h-0.9L-329.6-31.4L-329.6-31.4z M-313.3-31.4h11.4v-4.3h-2.1v-8.7     c0.6-0.1,1.1-0.1,1.4-0.1c1.6,0,2.2,0.3,2.2,1.6v11.5h9.1v-4.3h-0.6c-0.4,0-0.9-0.5-0.9-0.9v-9.2c0-3.4-2.3-4.4-4.8-4.4     c-2.9,0-5,1.2-6.7,2.9c-0.2-2-0.7-2.6-1.4-2.6h-8v4.6h1c0.4,0,0.9,0.5,0.9,0.9v7.8c0,0.3-0.5,0.9-0.9,0.9h-0.9v4.3H-313.3z      M-284.5-31.2c2.2,0,4-0.6,5.3-2.1c0.6,1.4,1.8,2.2,4.2,2.2c1.8,0,3.3-0.4,4.4-1v-3.6h-0.6c-0.3,0-0.8-0.5-0.8-0.9v-7.4     c0-4.3-2.5-6.3-8.3-6.3c-3.8,0-6.7,0.6-8.6,1.3v5.2h3.2c0.7-0.6,1.7-1.3,3.6-1.3c1.8,0,2.5,0.6,2.5,1.9v1.1c-1-0.2-2-0.2-3.4-0.2     c-4.3,0-7.2,1.8-7.2,5.8C-290.3-32.9-287.6-31.2-284.5-31.2z M-281.4-35.5c-0.9,0-1.7-0.4-1.7-1.7c0-1.4,0.7-1.8,1.9-1.8     c0.5,0,1,0.1,1.5,0.1v2.8C-280.3-35.7-280.8-35.5-281.4-35.5z M-270.5-45.2h1.8v8.8c0,4.3,2.7,5.5,6.8,5.5c1.8,0,3.1-0.3,4.1-0.5     v-4.2h-0.9c-1.7,0-2.2-0.5-2.2-2.1v-7.5h3.1v-4.6h-3.1v-4.8h-7.7v4.8h-1.8L-270.5-45.2L-270.5-45.2z M-256.9-31.4h11.2v-4.3h-0.9     c-0.4,0-0.9-0.5-0.9-0.9V-48c0-1.2-0.4-1.8-1.1-1.8h-8.4v4.6h1c0.3,0,0.8,0.6,0.8,0.9v7.8c0,0.3-0.5,0.9-0.8,0.9h-0.9     L-256.9-31.4L-256.9-31.4z M-251.4-50.6c2.1,0,3.6-1.3,3.6-3.3s-1.5-3.3-3.6-3.3s-3.5,1.3-3.5,3.3     C-254.9-51.8-253.4-50.6-251.4-50.6z M-234.7-31.1c6,0,10.4-3.6,10.4-9.4c0-5.9-4.3-9.7-10.4-9.7s-10.4,3.8-10.4,9.7     C-245.1-34.7-240.8-31.1-234.7-31.1z M-234.7-35.7c-1.6,0-2.7-1.5-2.7-4.9c0-3.3,1.1-4.8,2.7-4.8s2.6,1.4,2.6,4.8     C-232.1-37.2-233.1-35.7-234.7-35.7z M-223.5-31.4h11.4v-4.3h-2.1v-8.7c0.6-0.1,1.1-0.1,1.4-0.1c1.6,0,2.2,0.3,2.2,1.6v11.5h9.1     v-4.3h-0.6c-0.4,0-0.9-0.5-0.9-0.9v-9.2c0-3.4-2.3-4.4-4.8-4.4c-2.9,0-5,1.2-6.6,2.9c-0.2-2-0.7-2.6-1.4-2.6h-8v4.6h1     c0.4,0,0.9,0.5,0.9,0.9v7.8c0,0.3-0.5,0.9-0.9,0.9h-0.9v4.3H-223.5z M-194.8-31.2c2.2,0,4-0.6,5.3-2.1c0.6,1.4,1.8,2.2,4.2,2.2     c1.8,0,3.3-0.4,4.4-1v-3.6h-0.6c-0.4,0-0.8-0.5-0.8-0.9v-7.4c0-4.3-2.5-6.3-8.3-6.3c-3.8,0-6.7,0.6-8.6,1.3v5.2h3.2     c0.7-0.6,1.7-1.3,3.6-1.3c1.8,0,2.5,0.6,2.5,1.9v1.1c-1-0.2-2-0.2-3.4-0.2c-4.3,0-7.2,1.8-7.2,5.8     C-200.5-32.9-197.9-31.2-194.8-31.2L-194.8-31.2z M-191.7-35.5c-0.9,0-1.7-0.3-1.7-1.7s0.7-1.8,1.9-1.8c0.4,0,1,0.1,1.5,0.1v2.8     C-190.5-35.7-191-35.5-191.7-35.5L-191.7-35.5z M-180-31.4h11.4v-4.3h-1.1c-0.4,0-0.8-0.5-0.8-0.9v-17.7c0-0.9-0.4-1.5-1.1-1.5     h-8.5v4.5h1.1c0.4,0,0.8,0.5,0.8,0.9v14c0,0.3-0.5,0.9-0.8,0.9h-1V-31.4L-180-31.4z M-399,1.5h12c6.6,0,10.7-2.3,10.7-7     c0-3.3-2-5.2-5.6-5.7v-0.1c3.1-0.7,4.9-2.2,4.9-5.3c0-4.3-3.5-6.3-10-6.3h-12v4.4h1c0.4,0,1,0.6,1,1v13.7c0,0.4-0.6,1-1,1h-1     C-399-2.9-399,1.5-399,1.5z M-389-3.1V-9h1.4c2.2,0,3,0.9,3,2.9s-0.8,3-3,3H-389z M-389-18.3h1.3c2,0,2.7,0.9,2.7,2.6     c0,1.7-0.8,2.6-2.7,2.6h-1.3V-18.3z M-369.4,1.8c2.9,0,4.9-1.2,6.5-2.8c0.2,2,0.7,2.5,1.4,2.5h7.8v-4.3h-0.8     c-0.4,0-0.8-0.6-0.8-0.9v-13.3h-9.5v4.6h1.9v8.5c-0.6,0.1-1.1,0.1-1.4,0.1c-1.5,0-2.3-0.3-2.3-1.8V-17h-9.2v4.6h0.7     c0.3,0,0.8,0.5,0.8,0.9v8.9C-374.3,0.8-371.9,1.8-369.4,1.8z M-345.1,1.8c6.2,0,8.8-2.3,8.8-6.6s-2.3-5.4-6.9-6     c-2.2-0.3-2.8-0.5-2.8-1.1s0.5-1,2.1-1c1.4,0,2.4,0.5,2.9,1.3h4v-4.8c-1.8-0.6-3.9-0.9-7.3-0.9c-5.2,0-8.5,2-8.5,6.2     s2.3,5.6,6.4,6.1c2.4,0.2,3,0.5,3,1.2s-0.8,1.1-2.1,1.1c-1.4,0-2.7-0.6-3.2-1.6h-4v5.1C-351.1,1.3-348.8,1.8-345.1,1.8z      M-335.2,1.5h11.2v-4.3h-0.9c-0.4,0-0.9-0.5-0.9-0.9v-11.5c0-1.2-0.4-1.8-1.1-1.8h-8.4v4.6h1c0.4,0,0.8,0.6,0.8,0.9v7.8     c0,0.3-0.5,0.9-0.8,0.9h-0.9C-335.2-2.8-335.2,1.5-335.2,1.5z M-329.7-17.7c2.1,0,3.6-1.3,3.6-3.3s-1.5-3.3-3.6-3.3     s-3.5,1.3-3.5,3.3C-333.2-18.9-331.7-17.7-329.7-17.7z M-323.2,1.5h11.4v-4.3h-2.1v-8.7c0.6-0.1,1.1-0.1,1.4-0.1     c1.6,0,2.2,0.3,2.2,1.6V1.5h9.1v-4.3h-0.6c-0.4,0-0.9-0.5-0.9-0.9v-9.2c0-3.4-2.3-4.4-4.8-4.4c-2.9,0-5,1.2-6.6,2.9     c-0.2-2-0.7-2.6-1.4-2.6h-8v4.6h1c0.3,0,0.9,0.5,0.9,0.9v7.8c0,0.3-0.5,0.9-0.9,0.9h-0.9C-323.2-2.8-323.2,1.5-323.2,1.5z      M-281.2-6.1c0-0.2,0.1-0.9,0.1-1.8c0-6.5-2.9-9.4-9.2-9.4c-6.2,0-10,3.8-10,9.7c0,5.8,2.9,9.5,10.1,9.5c4.2,0,6.7-0.7,8.4-1.7     v-4.4h-4c-0.7,0.9-1.6,1.6-3.5,1.6c-2.1,0-3-1-3.3-3.4L-281.2-6.1L-281.2-6.1z M-290.4-12.9c1.3,0,1.9,0.9,2.1,3.3h-4.4     C-292.4-12-291.7-12.9-290.4-12.9z M-272.5,1.8c6.2,0,8.8-2.3,8.8-6.6s-2.4-5.4-6.9-6c-2.2-0.3-2.8-0.5-2.8-1.1s0.5-1,2.1-1     c1.4,0,2.4,0.5,2.9,1.3h4v-4.8c-1.8-0.6-3.9-0.9-7.3-0.9c-5.2,0-8.5,2-8.5,6.2s2.3,5.6,6.4,6.1c2.4,0.2,3,0.5,3,1.2     s-0.8,1.1-2.1,1.1c-1.4,0-2.7-0.6-3.2-1.6h-4v5.1C-278.5,1.3-276.2,1.8-272.5,1.8z M-255.1,1.8c6.2,0,8.8-2.3,8.8-6.6     s-2.4-5.4-6.9-6c-2.2-0.3-2.8-0.5-2.8-1.1s0.5-1,2.1-1c1.4,0,2.4,0.5,2.9,1.3h4v-4.8c-1.8-0.6-3.9-0.9-7.3-0.9     c-5.2,0-8.5,2-8.5,6.2s2.3,5.6,6.4,6.1c2.4,0.2,3,0.5,3,1.2s-0.8,1.1-2.1,1.1c-1.4,0-2.7-0.6-3.2-1.6h-4v5.1     C-261.1,1.3-258.8,1.8-255.1,1.8L-255.1,1.8z M-393.7,34.4h12.5v-4.3h-1.2c-0.4,0-1-0.6-1-1V14.7h2l0.6,4.5h4.8V10h-22.9v9.2h4.9     l0.5-4.5h2v14.5c0,0.4-0.6,1-1,1h-1.2L-393.7,34.4L-393.7,34.4z M-375,34.4h11.2v-4.3h-0.9c-0.4,0-0.9-0.5-0.9-0.9V17.8     c0-1.2-0.4-1.8-1.1-1.8h-8.4v4.6h1c0.4,0,0.8,0.6,0.8,0.9v7.8c0,0.3-0.5,0.9-0.8,0.9h-0.9C-375,30.1-375,34.4-375,34.4z      M-369.4,15.2c2.1,0,3.6-1.3,3.6-3.3s-1.5-3.3-3.6-3.3s-3.5,1.3-3.5,3.3C-372.9,14-371.5,15.2-369.4,15.2z M-362.9,34.4h11v-4.3     h-1.6v-8.7c0.5-0.1,1.1-0.1,1.4-0.1c1.6,0,1.9,0.2,1.9,1.6v11.5h9.3v-4.3h-1.6v-8.7c0.5-0.1,1.1-0.1,1.4-0.1     c1.6,0,1.8,0.2,1.8,1.6v11.5h9.1v-4.3h-0.6c-0.4,0-0.9-0.5-0.9-0.9V20c0-3.4-2.3-4.4-4.7-4.4c-3,0-4.8,1.5-6.3,3.1     c-0.5-2.3-2.5-3.1-4.6-3.1c-2.9,0-4.8,1.4-6.2,3c-0.2-2.1-0.7-2.7-1.4-2.7h-8v4.6h1c0.4,0,0.9,0.6,0.9,0.9v7.8     c0,0.3-0.5,0.9-0.9,0.9h-0.9C-362.9,30.1-362.9,34.4-362.9,34.4z M-310.6,26.8c0-0.2,0.1-0.9,0.1-1.8c0-6.5-2.9-9.4-9.2-9.4     c-6.2,0-10,3.8-10,9.7c0,5.8,2.9,9.4,10.1,9.4c4.2,0,6.7-0.7,8.4-1.7v-4.4h-4c-0.7,0.9-1.6,1.6-3.5,1.6c-2.1,0-3-1-3.3-3.4     L-310.6,26.8L-310.6,26.8z M-319.7,19.9c1.3,0,1.9,0.9,2.1,3.3h-4.4C-321.8,20.8-321.1,19.9-319.7,19.9z M-301.9,34.7     c6.2,0,8.8-2.3,8.8-6.6s-2.4-5.4-6.9-5.9c-2.2-0.3-2.8-0.5-2.8-1.1c0-0.6,0.5-1,2.1-1c1.4,0,2.4,0.5,2.9,1.3h4v-4.8     c-1.8-0.6-3.9-0.9-7.3-0.9c-5.2,0-8.5,2-8.5,6.2s2.3,5.6,6.4,6.1c2.4,0.2,3,0.5,3,1.2s-0.8,1.1-2.1,1.1c-1.4,0-2.7-0.6-3.2-1.6     h-4v5C-307.9,34.2-305.6,34.7-301.9,34.7z"/>
		</g>
	</g>
	<g id="small">
		<g transform="translate(337 26)">
			<path id="Fill-1" class="st2" d="M-95.5,36.3h1.4c0.5,0,1.1-0.7,1.1-1.2V19.4c0-0.4-0.6-1.1-1.1-1.1h-1.4v-5.1h14.4v5.1h-1.4     c-0.4,0-1.1,0.7-1.1,1.1v15.7c0,0.4,0.6,1.2,1.1,1.2h1.4v4.9h-14.4V36.3"/>
			<path id="Fill-2" class="st2" d="M-76.7,36.2h1.2c0.5,0,1.1-0.7,1.1-1.2V19.3c0-0.4-0.6-1.1-1.1-1.1h-1.2v-5.1h13.6     c7.5,0,11.5,2.4,11.5,7.3c0,3.5-2,5.2-5.6,6v0.2c4.1,0.6,6.4,2.8,6.4,6.6c0,5.4-4.7,8.1-12.3,8.1h-13.7     C-76.7,41.2-76.7,36.2-76.7,36.2z M-65.2,24.4h1.4c2.2,0,3.1-1,3.1-3s-0.8-3-3.1-3h-1.5C-65.2,18.4-65.2,24.4-65.2,24.4z      M-63.6,36c2.5,0,3.4-1.1,3.4-3.5c0-2.3-0.9-3.3-3.4-3.3h-1.6V36H-63.6z"/>
			<path id="Fill-3" class="st2" d="M-42.7,36.1h1.3c0.5,0,1.1-0.7,1.1-1.2V18.3h-2.3l-0.6,5.2h-5.6V12.9h26.3v10.6H-28l-0.6-5.2     h-2.3v16.6c0,0.4,0.6,1.2,1.1,1.2h1.3V41h-14.3v-4.9"/>
		</g>
	</g>
	<g id="pulse">
		<g id="Page-1" transform="translate(83 15)">
			<path id="Line" class="st3" d="M350.4,24l-7,38"/>
			<g id="Group-21">
				<path id="Fill-2_1_" class="st2" d="M361.4,43.6c1.6,0,2.9-0.3,3.7-1c0.8-0.7,1.3-1.6,1.3-2.9c0-0.9-0.3-1.6-0.9-2      c-0.6-0.4-1.5-0.6-2.6-0.6h-2.4l-1.3,6.4C359.1,43.6,361.4,43.6,361.4,43.6z M358.8,35.7h4.4c0.7,0,1.4,0.1,2,0.2      c0.6,0.1,1.1,0.4,1.6,0.7c0.4,0.3,0.8,0.7,1,1.2c0.2,0.5,0.4,1.1,0.4,1.8c0,1-0.2,1.8-0.5,2.5c-0.4,0.7-0.8,1.3-1.4,1.7      c-0.6,0.5-1.3,0.8-2.2,1c-0.8,0.2-1.8,0.3-2.8,0.3h-2.5l-1.2,6.3h-1.9C355.7,51.4,358.8,35.7,358.8,35.7z"/>
				<path id="Fill-4" class="st2" d="M376.6,51.4h-1.5l0.2-1.8h-0.1c-0.6,0.6-1.3,1-2,1.5c-0.7,0.4-1.4,0.6-2.1,0.6      c-1,0-1.7-0.3-2.1-0.8c-0.4-0.5-0.6-1.2-0.6-2.1c0-0.3,0-0.5,0-0.8c0-0.2,0.1-0.5,0.2-0.8l1.5-7.4h1.9l-1.5,7.2      c-0.1,0.3-0.1,0.6-0.1,0.8c0,0.2,0,0.4,0,0.6c0,0.6,0.1,1,0.4,1.3c0.3,0.3,0.7,0.5,1.3,0.5c0.5,0,1-0.2,1.5-0.5      c0.6-0.3,1.2-0.9,1.9-1.6l1.7-8.3h1.8C379,39.8,376.6,51.4,376.6,51.4z"/>
				<path id="Fill-6" class="st2" d="M382.9,34.4h1.8l-3,15c0,0.1,0,0.2,0,0.3v0.2c0,0.3,0.1,0.4,0.4,0.4h0.1c0.1,0,0.1,0,0.2-0.1      v1.4c-0.2,0.1-0.3,0.1-0.5,0.1s-0.4,0-0.6,0c-0.5,0-0.9-0.1-1.2-0.4c-0.3-0.3-0.4-0.6-0.4-1.1c0-0.3,0.1-0.6,0.2-1L382.9,34.4      L382.9,34.4z"/>
				<path id="Fill-8" class="st2" d="M384.8,48.6c0.4,0.5,0.8,0.9,1.3,1.2c0.5,0.3,1.1,0.5,1.7,0.5c0.3,0,0.6-0.1,1-0.2      c0.3-0.1,0.6-0.2,0.8-0.4c0.2-0.2,0.4-0.4,0.5-0.6s0.2-0.5,0.2-0.8c0-0.2,0-0.4-0.1-0.6c-0.1-0.2-0.2-0.3-0.4-0.5      c-0.2-0.2-0.4-0.3-0.7-0.5s-0.6-0.4-1-0.6c-0.9-0.5-1.6-1-2-1.5s-0.6-1.1-0.6-1.7c0-0.5,0.1-1,0.3-1.4c0.2-0.4,0.5-0.8,0.9-1.1      c0.4-0.3,0.8-0.5,1.3-0.7s1-0.3,1.5-0.3c0.7,0,1.4,0.1,1.9,0.4c0.6,0.3,1.1,0.7,1.5,1.1l-1,1c-0.3-0.3-0.7-0.6-1.1-0.8      c-0.4-0.2-0.8-0.3-1.4-0.3s-1.1,0.2-1.6,0.5c-0.4,0.4-0.6,0.8-0.6,1.3c0,0.2,0.1,0.5,0.2,0.6c0.1,0.2,0.3,0.4,0.4,0.5      c0.1,0.1,0.4,0.3,0.7,0.5c0.2,0.1,0.5,0.3,0.8,0.4c0.5,0.3,1,0.6,1.3,0.8c0.3,0.3,0.6,0.5,0.8,0.8c0.2,0.3,0.4,0.5,0.5,0.8      c0.1,0.3,0.1,0.6,0.1,0.9c0,0.5-0.1,1-0.3,1.5c-0.2,0.4-0.5,0.8-0.9,1.1s-0.9,0.6-1.4,0.7c-0.5,0.2-1.1,0.3-1.7,0.3      c-0.4,0-0.8-0.1-1.2-0.2s-0.8-0.3-1.1-0.5c-0.4-0.2-0.7-0.4-1-0.7c-0.3-0.3-0.5-0.6-0.7-0.9L384.8,48.6L384.8,48.6z"/>
				<g id="Group-12">
					<path id="Fill-10" class="st2" d="M401.8,44.7c0-0.2,0.1-0.4,0.1-0.6s0-0.4,0-0.6c0-0.3,0-0.7-0.1-1c-0.1-0.3-0.2-0.6-0.4-0.8       c-0.2-0.2-0.4-0.4-0.7-0.6c-0.3-0.1-0.6-0.2-1.1-0.2c-0.4,0-0.9,0.1-1.3,0.3c-0.4,0.2-0.8,0.4-1.1,0.8       c-0.4,0.3-0.7,0.7-0.9,1.2c-0.3,0.5-0.5,1-0.6,1.6h6.1V44.7z M393.6,46.9c0-1.1,0.2-2.1,0.5-3c0.4-0.9,0.8-1.7,1.4-2.3       s1.2-1.1,2-1.5c0.7-0.4,1.5-0.5,2.3-0.5c0.6,0,1.2,0.1,1.7,0.3s0.8,0.5,1.1,0.9c0.3,0.4,0.5,0.8,0.6,1.3s0.2,1.1,0.2,1.7       c0,0.5-0.1,0.9-0.1,1.3c-0.1,0.4-0.2,0.7-0.3,1h-7.6c-0.1,0.8-0.1,1.4,0,1.9s0.3,1,0.6,1.3c0.3,0.4,0.7,0.6,1.1,0.8       s0.9,0.2,1.4,0.2s0.9-0.1,1.4-0.3c0.5-0.2,0.9-0.4,1.2-0.7l0.7,1.2c-0.5,0.3-1,0.6-1.7,0.9c-0.6,0.2-1.3,0.4-2.1,0.4       c-1.4,0-2.5-0.4-3.3-1.3C394,49.6,393.6,48.4,393.6,46.9L393.6,46.9z"/>
				</g>
				<path id="Fill-13" class="st2" d="M259.9,47.4h1.2c0.4,0,1-0.6,1-1V33c0-0.4-0.5-1-1-1h-1.2v-4.4h12.2V32h-1.2      c-0.4,0-0.9,0.6-0.9,1v13.4c0,0.4,0.5,1,0.9,1h1.2v4.2h-12.2V47.4L259.9,47.4z"/>
				<path id="Fill-15" class="st2" d="M287.1,47.2c2.1,0,2.9-1,2.9-2.9s-0.8-2.8-2.9-2.8h-1.4v5.7L287.1,47.2L287.1,47.2z       M285.7,37.2h1.2c1.9,0,2.7-0.9,2.7-2.6s-0.7-2.5-2.6-2.5h-1.3L285.7,37.2L285.7,37.2z M275.9,47.3h1c0.4,0,1-0.6,1-1V32.9      c0-0.4-0.5-1-1-1h-1v-4.3h11.6c6.4,0,9.8,2,9.8,6.2c0,3-1.7,4.4-4.8,5.1V39c3.5,0.5,5.5,2.4,5.5,5.6c0,4.6-4,6.9-10.4,6.9h-11.7      C275.9,51.6,275.9,47.3,275.9,47.3z"/>
				<path id="Fill-17" class="st2" d="M304.8,47.2h1.1c0.4,0,1-0.6,1-1V32.1H305l-0.5,4.4h-4.8v-9h22.4v9h-4.7l-0.5-4.4H315v14.2      c0,0.4,0.5,1,1,1h1.1v4.2h-12.2v-4.3L304.8,47.2L304.8,47.2z"/>
			</g>
		</g>
	</g>
	<g id="play" class="st0">
		<g class="st4">
			<circle class="st5" cx="529" cy="55.9" r="15"/>
		</g>
		<polygon class="st6" points="525.6,49 525.6,62.9 536,55.9   "/>
	</g>
</g>
</svg>