<svg width="264" height="70" viewBox="0 0 200 54" version="1.1" xmlns="http://www.w3.org/2000/svg"><g fill="none" fill-rule="evenodd"><path d="m166.37 10.84h-28.534l-4.619 17.485-4.413-17.485h-30.791l14.266 42.33h39.824l14.266-42.33m1.848-2.965h33.664v-3.784h-33.664v3.784m-105.82.101h33.666v-3.681h-33.666v3.681m105.82 45.2h33.562v-42.33h-33.562v42.33m-105.82.101h33.666v-42.33h-33.666v42.33m-62.4-26.07h8.313v7.977c0 11.861 6.158 18.199 20.22 18.199h8.212c6.672 0 13.65-.409 20.12-.92v-17.382c0 0-2.975.203-9.441.203-3.901 0-5.543-2.043-5.543-5.624v-2.454h14.984v-16.257h-14.984v-10.942l-41.876 11.04v16.16" fill="#fff"></path></g></svg>